<mxfile host="app.diagrams.net" modified="2020-07-02T08:33:11.836Z" agent="5.0 (Windows NT 10.0; Win64; x64) AppleWebKit/537.36 (KHTML, like Gecko) Chrome/83.0.4103.116 Safari/537.36" etag="Gfz1PIcgIrjIxHQG86cl" version="13.3.6" type="github">
  <diagram name="Page-1" id="4bd5d27a-524c-7e24-5d5f-89a86ee4fca1">
    <mxGraphModel dx="1422" dy="882" grid="1" gridSize="10" guides="1" tooltips="1" connect="1" arrows="1" fold="1" page="1" pageScale="1" pageWidth="1100" pageHeight="850" background="#ffffff" math="0" shadow="0">
      <root>
        <mxCell id="0" />
        <mxCell id="1" parent="0" />
        <mxCell id="o0DwF4cKXNTqMPwhff9--59" value="" style="rounded=0;whiteSpace=wrap;html=1;" parent="1" vertex="1">
          <mxGeometry x="530" y="30" width="120" height="210" as="geometry" />
        </mxCell>
        <mxCell id="o0DwF4cKXNTqMPwhff9--6" value="" style="rounded=1;whiteSpace=wrap;html=1;" parent="1" vertex="1">
          <mxGeometry x="50" y="22.5" width="410" height="217.5" as="geometry" />
        </mxCell>
        <mxCell id="o0DwF4cKXNTqMPwhff9--7" value="" style="ellipse;whiteSpace=wrap;html=1;aspect=fixed;" parent="1" vertex="1">
          <mxGeometry x="70" y="40" width="10" height="10" as="geometry" />
        </mxCell>
        <mxCell id="o0DwF4cKXNTqMPwhff9--61" value="" style="group" parent="1" vertex="1" connectable="0">
          <mxGeometry x="530" y="118.75" width="45" height="25" as="geometry" />
        </mxCell>
        <mxCell id="o0DwF4cKXNTqMPwhff9--43" value="" style="shape=offPageConnector;whiteSpace=wrap;html=1;rotation=90;" parent="o0DwF4cKXNTqMPwhff9--61" vertex="1">
          <mxGeometry x="7.5" y="-7.5" width="25" height="40" as="geometry" />
        </mxCell>
        <mxCell id="o0DwF4cKXNTqMPwhff9--60" value="ADC" style="text;html=1;strokeColor=none;fillColor=none;align=center;verticalAlign=middle;whiteSpace=wrap;rounded=0;" parent="o0DwF4cKXNTqMPwhff9--61" vertex="1">
          <mxGeometry x="5" y="2.5" width="40" height="20" as="geometry" />
        </mxCell>
        <mxCell id="o0DwF4cKXNTqMPwhff9--68" value="Microcontroller" style="text;html=1;strokeColor=none;fillColor=none;align=center;verticalAlign=middle;whiteSpace=wrap;rounded=0;" parent="1" vertex="1">
          <mxGeometry x="575" y="210" width="40" height="20" as="geometry" />
        </mxCell>
        <mxCell id="o0DwF4cKXNTqMPwhff9--77" value="Bluetooth" style="rounded=0;whiteSpace=wrap;html=1;" parent="1" vertex="1">
          <mxGeometry x="590" y="30" width="60" height="60" as="geometry" />
        </mxCell>
        <mxCell id="o0DwF4cKXNTqMPwhff9--79" style="edgeStyle=orthogonalEdgeStyle;rounded=0;orthogonalLoop=1;jettySize=auto;html=1;exitX=0.5;exitY=1;exitDx=0;exitDy=0;exitPerimeter=0;entryX=1;entryY=0.5;entryDx=0;entryDy=0;endArrow=none;endFill=0;" parent="1" source="o0DwF4cKXNTqMPwhff9--78" target="o0DwF4cKXNTqMPwhff9--77" edge="1">
          <mxGeometry relative="1" as="geometry" />
        </mxCell>
        <mxCell id="o0DwF4cKXNTqMPwhff9--78" value="" style="verticalLabelPosition=bottom;shadow=0;dashed=0;align=center;html=1;verticalAlign=top;shape=mxgraph.electrical.radio.aerial_-_antenna_2;" parent="1" vertex="1">
          <mxGeometry x="670" y="40" width="23.7" height="30" as="geometry" />
        </mxCell>
        <mxCell id="eyG7hMnMqO44mtvVvA0Y-33" value="" style="ellipse;whiteSpace=wrap;html=1;aspect=fixed;" parent="1" vertex="1">
          <mxGeometry x="110" y="40" width="10" height="10" as="geometry" />
        </mxCell>
        <mxCell id="eyG7hMnMqO44mtvVvA0Y-35" value="" style="ellipse;whiteSpace=wrap;html=1;aspect=fixed;" parent="1" vertex="1">
          <mxGeometry x="150" y="40" width="10" height="10" as="geometry" />
        </mxCell>
        <mxCell id="eyG7hMnMqO44mtvVvA0Y-36" value="" style="ellipse;whiteSpace=wrap;html=1;aspect=fixed;" parent="1" vertex="1">
          <mxGeometry x="190" y="40" width="10" height="10" as="geometry" />
        </mxCell>
        <mxCell id="eyG7hMnMqO44mtvVvA0Y-37" value="" style="ellipse;whiteSpace=wrap;html=1;aspect=fixed;" parent="1" vertex="1">
          <mxGeometry x="230" y="40" width="10" height="10" as="geometry" />
        </mxCell>
        <mxCell id="eyG7hMnMqO44mtvVvA0Y-38" value="" style="ellipse;whiteSpace=wrap;html=1;aspect=fixed;" parent="1" vertex="1">
          <mxGeometry x="270" y="40" width="10" height="10" as="geometry" />
        </mxCell>
        <mxCell id="eyG7hMnMqO44mtvVvA0Y-39" value="" style="ellipse;whiteSpace=wrap;html=1;aspect=fixed;" parent="1" vertex="1">
          <mxGeometry x="310" y="40" width="10" height="10" as="geometry" />
        </mxCell>
        <mxCell id="eyG7hMnMqO44mtvVvA0Y-40" value="" style="ellipse;whiteSpace=wrap;html=1;aspect=fixed;" parent="1" vertex="1">
          <mxGeometry x="350" y="40" width="10" height="10" as="geometry" />
        </mxCell>
        <mxCell id="eyG7hMnMqO44mtvVvA0Y-41" value="" style="ellipse;whiteSpace=wrap;html=1;aspect=fixed;" parent="1" vertex="1">
          <mxGeometry x="390" y="40" width="10" height="10" as="geometry" />
        </mxCell>
        <mxCell id="eyG7hMnMqO44mtvVvA0Y-42" value="" style="ellipse;whiteSpace=wrap;html=1;aspect=fixed;" parent="1" vertex="1">
          <mxGeometry x="430" y="40" width="10" height="10" as="geometry" />
        </mxCell>
        <mxCell id="eyG7hMnMqO44mtvVvA0Y-43" value="&lt;font style=&quot;font-size: 6px&quot;&gt;4cm&lt;/font&gt;" style="endArrow=blockThin;startArrow=blockThin;html=1;exitX=1;exitY=0.5;exitDx=0;exitDy=0;entryX=0;entryY=0.5;entryDx=0;entryDy=0;dashed=1;rounded=1;startFill=1;endFill=1;" parent="1" edge="1">
          <mxGeometry width="50" height="50" relative="1" as="geometry">
            <mxPoint x="80" y="45" as="sourcePoint" />
            <mxPoint x="110" y="45" as="targetPoint" />
          </mxGeometry>
        </mxCell>
        <mxCell id="eyG7hMnMqO44mtvVvA0Y-44" value="" style="ellipse;whiteSpace=wrap;html=1;aspect=fixed;" parent="1" vertex="1">
          <mxGeometry x="70" y="80" width="10" height="10" as="geometry" />
        </mxCell>
        <mxCell id="eyG7hMnMqO44mtvVvA0Y-45" value="" style="ellipse;whiteSpace=wrap;html=1;aspect=fixed;" parent="1" vertex="1">
          <mxGeometry x="110" y="80" width="10" height="10" as="geometry" />
        </mxCell>
        <mxCell id="eyG7hMnMqO44mtvVvA0Y-46" value="" style="ellipse;whiteSpace=wrap;html=1;aspect=fixed;" parent="1" vertex="1">
          <mxGeometry x="150" y="80" width="10" height="10" as="geometry" />
        </mxCell>
        <mxCell id="eyG7hMnMqO44mtvVvA0Y-47" value="" style="ellipse;whiteSpace=wrap;html=1;aspect=fixed;" parent="1" vertex="1">
          <mxGeometry x="190" y="80" width="10" height="10" as="geometry" />
        </mxCell>
        <mxCell id="eyG7hMnMqO44mtvVvA0Y-48" value="" style="ellipse;whiteSpace=wrap;html=1;aspect=fixed;" parent="1" vertex="1">
          <mxGeometry x="230" y="80" width="10" height="10" as="geometry" />
        </mxCell>
        <mxCell id="eyG7hMnMqO44mtvVvA0Y-49" value="" style="ellipse;whiteSpace=wrap;html=1;aspect=fixed;" parent="1" vertex="1">
          <mxGeometry x="270" y="80" width="10" height="10" as="geometry" />
        </mxCell>
        <mxCell id="eyG7hMnMqO44mtvVvA0Y-50" value="" style="ellipse;whiteSpace=wrap;html=1;aspect=fixed;" parent="1" vertex="1">
          <mxGeometry x="310" y="80" width="10" height="10" as="geometry" />
        </mxCell>
        <mxCell id="eyG7hMnMqO44mtvVvA0Y-51" value="" style="ellipse;whiteSpace=wrap;html=1;aspect=fixed;" parent="1" vertex="1">
          <mxGeometry x="350" y="80" width="10" height="10" as="geometry" />
        </mxCell>
        <mxCell id="eyG7hMnMqO44mtvVvA0Y-52" value="" style="ellipse;whiteSpace=wrap;html=1;aspect=fixed;" parent="1" vertex="1">
          <mxGeometry x="390" y="80" width="10" height="10" as="geometry" />
        </mxCell>
        <mxCell id="eyG7hMnMqO44mtvVvA0Y-53" value="" style="ellipse;whiteSpace=wrap;html=1;aspect=fixed;" parent="1" vertex="1">
          <mxGeometry x="430" y="80" width="10" height="10" as="geometry" />
        </mxCell>
        <mxCell id="eyG7hMnMqO44mtvVvA0Y-55" value="&lt;font style=&quot;font-size: 6px&quot;&gt;4cm&lt;/font&gt;" style="endArrow=blockThin;startArrow=blockThin;html=1;exitX=0.5;exitY=1;exitDx=0;exitDy=0;entryX=0.5;entryY=0;entryDx=0;entryDy=0;dashed=1;rounded=1;startFill=1;endFill=1;" parent="1" source="o0DwF4cKXNTqMPwhff9--7" target="eyG7hMnMqO44mtvVvA0Y-44" edge="1">
          <mxGeometry x="0.0133" width="50" height="50" relative="1" as="geometry">
            <mxPoint x="90" y="55" as="sourcePoint" />
            <mxPoint x="120" y="55" as="targetPoint" />
            <mxPoint as="offset" />
          </mxGeometry>
        </mxCell>
        <mxCell id="eyG7hMnMqO44mtvVvA0Y-76" value="" style="ellipse;whiteSpace=wrap;html=1;aspect=fixed;" parent="1" vertex="1">
          <mxGeometry x="70" y="200" width="10" height="10" as="geometry" />
        </mxCell>
        <mxCell id="eyG7hMnMqO44mtvVvA0Y-77" value="" style="ellipse;whiteSpace=wrap;html=1;aspect=fixed;" parent="1" vertex="1">
          <mxGeometry x="110" y="200" width="10" height="10" as="geometry" />
        </mxCell>
        <mxCell id="eyG7hMnMqO44mtvVvA0Y-78" value="" style="ellipse;whiteSpace=wrap;html=1;aspect=fixed;" parent="1" vertex="1">
          <mxGeometry x="150" y="200" width="10" height="10" as="geometry" />
        </mxCell>
        <mxCell id="eyG7hMnMqO44mtvVvA0Y-79" value="" style="ellipse;whiteSpace=wrap;html=1;aspect=fixed;" parent="1" vertex="1">
          <mxGeometry x="190" y="200" width="10" height="10" as="geometry" />
        </mxCell>
        <mxCell id="eyG7hMnMqO44mtvVvA0Y-80" value="" style="ellipse;whiteSpace=wrap;html=1;aspect=fixed;" parent="1" vertex="1">
          <mxGeometry x="230" y="200" width="10" height="10" as="geometry" />
        </mxCell>
        <mxCell id="eyG7hMnMqO44mtvVvA0Y-81" value="" style="ellipse;whiteSpace=wrap;html=1;aspect=fixed;" parent="1" vertex="1">
          <mxGeometry x="270" y="200" width="10" height="10" as="geometry" />
        </mxCell>
        <mxCell id="eyG7hMnMqO44mtvVvA0Y-82" value="" style="ellipse;whiteSpace=wrap;html=1;aspect=fixed;" parent="1" vertex="1">
          <mxGeometry x="310" y="200" width="10" height="10" as="geometry" />
        </mxCell>
        <mxCell id="eyG7hMnMqO44mtvVvA0Y-83" value="" style="ellipse;whiteSpace=wrap;html=1;aspect=fixed;" parent="1" vertex="1">
          <mxGeometry x="350" y="200" width="10" height="10" as="geometry" />
        </mxCell>
        <mxCell id="eyG7hMnMqO44mtvVvA0Y-84" value="" style="ellipse;whiteSpace=wrap;html=1;aspect=fixed;" parent="1" vertex="1">
          <mxGeometry x="390" y="200" width="10" height="10" as="geometry" />
        </mxCell>
        <mxCell id="eyG7hMnMqO44mtvVvA0Y-85" value="" style="ellipse;whiteSpace=wrap;html=1;aspect=fixed;" parent="1" vertex="1">
          <mxGeometry x="430" y="200" width="10" height="10" as="geometry" />
        </mxCell>
        <mxCell id="eyG7hMnMqO44mtvVvA0Y-86" value="" style="ellipse;whiteSpace=wrap;html=1;aspect=fixed;" parent="1" vertex="1">
          <mxGeometry x="70" y="120.5" width="10" height="10" as="geometry" />
        </mxCell>
        <mxCell id="eyG7hMnMqO44mtvVvA0Y-87" value="" style="ellipse;whiteSpace=wrap;html=1;aspect=fixed;" parent="1" vertex="1">
          <mxGeometry x="110" y="120.5" width="10" height="10" as="geometry" />
        </mxCell>
        <mxCell id="eyG7hMnMqO44mtvVvA0Y-88" value="" style="ellipse;whiteSpace=wrap;html=1;aspect=fixed;" parent="1" vertex="1">
          <mxGeometry x="150" y="120.5" width="10" height="10" as="geometry" />
        </mxCell>
        <mxCell id="eyG7hMnMqO44mtvVvA0Y-89" value="" style="ellipse;whiteSpace=wrap;html=1;aspect=fixed;" parent="1" vertex="1">
          <mxGeometry x="190" y="120.5" width="10" height="10" as="geometry" />
        </mxCell>
        <mxCell id="eyG7hMnMqO44mtvVvA0Y-90" value="" style="ellipse;whiteSpace=wrap;html=1;aspect=fixed;" parent="1" vertex="1">
          <mxGeometry x="230" y="120.5" width="10" height="10" as="geometry" />
        </mxCell>
        <mxCell id="eyG7hMnMqO44mtvVvA0Y-91" value="" style="ellipse;whiteSpace=wrap;html=1;aspect=fixed;" parent="1" vertex="1">
          <mxGeometry x="270" y="120.5" width="10" height="10" as="geometry" />
        </mxCell>
        <mxCell id="eyG7hMnMqO44mtvVvA0Y-92" value="" style="ellipse;whiteSpace=wrap;html=1;aspect=fixed;" parent="1" vertex="1">
          <mxGeometry x="310" y="120.5" width="10" height="10" as="geometry" />
        </mxCell>
        <mxCell id="eyG7hMnMqO44mtvVvA0Y-93" value="" style="ellipse;whiteSpace=wrap;html=1;aspect=fixed;" parent="1" vertex="1">
          <mxGeometry x="350" y="120.5" width="10" height="10" as="geometry" />
        </mxCell>
        <mxCell id="eyG7hMnMqO44mtvVvA0Y-94" value="" style="ellipse;whiteSpace=wrap;html=1;aspect=fixed;" parent="1" vertex="1">
          <mxGeometry x="390" y="120.5" width="10" height="10" as="geometry" />
        </mxCell>
        <mxCell id="eyG7hMnMqO44mtvVvA0Y-95" value="" style="ellipse;whiteSpace=wrap;html=1;aspect=fixed;" parent="1" vertex="1">
          <mxGeometry x="430" y="120.5" width="10" height="10" as="geometry" />
        </mxCell>
        <mxCell id="eyG7hMnMqO44mtvVvA0Y-96" value="" style="ellipse;whiteSpace=wrap;html=1;aspect=fixed;" parent="1" vertex="1">
          <mxGeometry x="70" y="159.5" width="10" height="10" as="geometry" />
        </mxCell>
        <mxCell id="eyG7hMnMqO44mtvVvA0Y-97" value="" style="ellipse;whiteSpace=wrap;html=1;aspect=fixed;" parent="1" vertex="1">
          <mxGeometry x="110" y="159.5" width="10" height="10" as="geometry" />
        </mxCell>
        <mxCell id="eyG7hMnMqO44mtvVvA0Y-98" value="" style="ellipse;whiteSpace=wrap;html=1;aspect=fixed;" parent="1" vertex="1">
          <mxGeometry x="150" y="159.5" width="10" height="10" as="geometry" />
        </mxCell>
        <mxCell id="eyG7hMnMqO44mtvVvA0Y-99" value="" style="ellipse;whiteSpace=wrap;html=1;aspect=fixed;" parent="1" vertex="1">
          <mxGeometry x="190" y="159.5" width="10" height="10" as="geometry" />
        </mxCell>
        <mxCell id="eyG7hMnMqO44mtvVvA0Y-100" value="" style="ellipse;whiteSpace=wrap;html=1;aspect=fixed;" parent="1" vertex="1">
          <mxGeometry x="230" y="159.5" width="10" height="10" as="geometry" />
        </mxCell>
        <mxCell id="eyG7hMnMqO44mtvVvA0Y-101" value="" style="ellipse;whiteSpace=wrap;html=1;aspect=fixed;" parent="1" vertex="1">
          <mxGeometry x="270" y="159.5" width="10" height="10" as="geometry" />
        </mxCell>
        <mxCell id="eyG7hMnMqO44mtvVvA0Y-102" value="" style="ellipse;whiteSpace=wrap;html=1;aspect=fixed;" parent="1" vertex="1">
          <mxGeometry x="310" y="159.5" width="10" height="10" as="geometry" />
        </mxCell>
        <mxCell id="eyG7hMnMqO44mtvVvA0Y-103" value="" style="ellipse;whiteSpace=wrap;html=1;aspect=fixed;" parent="1" vertex="1">
          <mxGeometry x="350" y="159.5" width="10" height="10" as="geometry" />
        </mxCell>
        <mxCell id="eyG7hMnMqO44mtvVvA0Y-104" value="" style="ellipse;whiteSpace=wrap;html=1;aspect=fixed;" parent="1" vertex="1">
          <mxGeometry x="390" y="159.5" width="10" height="10" as="geometry" />
        </mxCell>
        <mxCell id="eyG7hMnMqO44mtvVvA0Y-105" value="" style="ellipse;whiteSpace=wrap;html=1;aspect=fixed;" parent="1" vertex="1">
          <mxGeometry x="430" y="159.5" width="10" height="10" as="geometry" />
        </mxCell>
        <mxCell id="eyG7hMnMqO44mtvVvA0Y-106" value="42 cm" style="endArrow=classic;startArrow=classic;html=1;dashed=1;" parent="1" edge="1">
          <mxGeometry width="50" height="50" relative="1" as="geometry">
            <mxPoint x="50" y="250" as="sourcePoint" />
            <mxPoint x="460" y="250" as="targetPoint" />
          </mxGeometry>
        </mxCell>
        <mxCell id="eyG7hMnMqO44mtvVvA0Y-107" value="30 cm" style="endArrow=classic;startArrow=classic;html=1;dashed=1;" parent="1" edge="1">
          <mxGeometry width="50" height="50" relative="1" as="geometry">
            <mxPoint x="30" y="242.5" as="sourcePoint" />
            <mxPoint x="30" y="22.5" as="targetPoint" />
          </mxGeometry>
        </mxCell>
        <mxCell id="eyG7hMnMqO44mtvVvA0Y-108" value="" style="shape=flexArrow;endArrow=classic;startArrow=classic;html=1;exitX=1;exitY=0.5;exitDx=0;exitDy=0;entryX=0.5;entryY=1;entryDx=0;entryDy=0;" parent="1" source="o0DwF4cKXNTqMPwhff9--6" target="o0DwF4cKXNTqMPwhff9--43" edge="1">
          <mxGeometry width="50" height="50" relative="1" as="geometry">
            <mxPoint x="470" y="160" as="sourcePoint" />
            <mxPoint x="520" y="110" as="targetPoint" />
          </mxGeometry>
        </mxCell>
        <mxCell id="eyG7hMnMqO44mtvVvA0Y-111" value="" style="shape=image;html=1;verticalAlign=top;verticalLabelPosition=bottom;labelBackgroundColor=#ffffff;imageAspect=0;aspect=fixed;image=https://cdn4.iconfinder.com/data/icons/ionicons/512/icon-bluetooth-128.png" parent="1" vertex="1">
          <mxGeometry x="720" y="25" width="40" height="40" as="geometry" />
        </mxCell>
        <mxCell id="eyG7hMnMqO44mtvVvA0Y-115" value="" style="shape=flexArrow;endArrow=classic;startArrow=classic;html=1;" parent="1" edge="1">
          <mxGeometry width="50" height="50" relative="1" as="geometry">
            <mxPoint x="695" y="60" as="sourcePoint" />
            <mxPoint x="785" y="80" as="targetPoint" />
          </mxGeometry>
        </mxCell>
        <mxCell id="JYHWXLi6OfHGohHtGusl-2" value="" style="aspect=fixed;pointerEvents=1;shadow=0;dashed=0;html=1;strokeColor=none;labelPosition=center;verticalLabelPosition=bottom;verticalAlign=top;align=center;shape=mxgraph.mscae.enterprise.android_phone;fillColor=#000000;" vertex="1" parent="1">
          <mxGeometry x="800" y="40" width="66" height="110" as="geometry" />
        </mxCell>
      </root>
    </mxGraphModel>
  </diagram>
</mxfile>
